<svg xmlns="http://www.w3.org/2000/svg" class="icon" viewBox="0 0 1024 1024" width="200" height="200" t="1595679042195" p-id="2991" version="1.1"><path d="M 511.626 1.896 C 229.572 1.896 0.927 230.541 0.927 512.595 c 0 282.055 228.645 510.699 510.699 510.699 s 510.698 -228.645 510.698 -510.699 S 793.68 1.896 511.626 1.896 Z m 0 69.641 c 243.606 0 441.058 197.474 441.058 441.058 c 0 87.347 -25.392 168.762 -69.194 237.271 c -73.419 -77.609 -170.944 -132.204 -280.597 -151.829 c 70.004 -33.755 118.404 -105.164 118.404 -188.066 c 0 -115.388 -93.535 -208.922 -208.923 -208.922 S 303.452 294.583 303.452 409.97 c 0 82.902 48.399 154.311 118.403 188.066 c -110.093 19.704 -207.96 74.661 -281.479 152.77 c -44.177 -68.704 -69.808 -150.465 -69.808 -238.211 c 0 -243.584 197.496 -441.058 441.058 -441.058 Z" p-id="2992" /></svg>